{
    "asset" : {
        "generator" : "Khronos glTF Blender I/O v3.2.40",
        "version" : "2.0"
    },
    "scene" : 0,
    "scenes" : [
        {
            "name" : "Scene",
            "nodes" : [
                0,
                1
            ]
        }
    ],
    "nodes" : [
        {
            "mesh" : 0,
            "name" : "bitcoin_logo",
            "translation" : [
                -1.0187716484069824,
                1.8633081912994385,
                -0.0038198810070753098
            ]
        },
        {
            "mesh" : 1,
            "name" : "bitcoin",
            "rotation" : [
                0.7071068286895752,
                0,
                0,
                0.7071068286895752
            ],
            "scale" : [
                0.2138954997062683,
                0.2138954997062683,
                0.2138954997062683
            ],
            "translation" : [
                -1.0747288465499878,
                1.0327485799789429,
                0
            ]
        }
    ],
    "animations" : [
        {
            "channels" : [
                {
                    "sampler" : 0,
                    "target" : {
                        "node" : 0,
                        "path" : "rotation"
                    }
                }
            ],
            "name" : "bitcoinAction",
            "samplers" : [
                {
                    "input" : 8,
                    "interpolation" : "LINEAR",
                    "output" : 9
                }
            ]
        },
        {
            "channels" : [
                {
                    "sampler" : 0,
                    "target" : {
                        "node" : 1,
                        "path" : "translation"
                    }
                },
                {
                    "sampler" : 1,
                    "target" : {
                        "node" : 1,
                        "path" : "rotation"
                    }
                },
                {
                    "sampler" : 2,
                    "target" : {
                        "node" : 1,
                        "path" : "scale"
                    }
                }
            ],
            "name" : "bitcoin",
            "samplers" : [
                {
                    "input" : 8,
                    "interpolation" : "LINEAR",
                    "output" : 10
                },
                {
                    "input" : 8,
                    "interpolation" : "LINEAR",
                    "output" : 11
                },
                {
                    "input" : 8,
                    "interpolation" : "LINEAR",
                    "output" : 12
                }
            ]
        }
    ],
    "materials" : [
        {
            "doubleSided" : true,
            "name" : "Material.010",
            "pbrMetallicRoughness" : {
                "baseColorFactor" : [
                    0.8879230618476868,
                    0.3967548906803131,
                    0,
                    1
                ],
                "metallicFactor" : 0.9266055226325989,
                "roughnessFactor" : 0.09633000195026398
            }
        },
        {
            "doubleSided" : true,
            "name" : "Material.005",
            "pbrMetallicRoughness" : {
                "baseColorFactor" : [
                    0.008886558003723621,
                    0.008957224898040295,
                    0.2317694127559662,
                    1
                ],
                "metallicFactor" : 0
            }
        }
    ],
    "meshes" : [
        {
            "name" : "Text.003",
            "primitives" : [
                {
                    "attributes" : {
                        "POSITION" : 0,
                        "NORMAL" : 1,
                        "TEXCOORD_0" : 2
                    },
                    "indices" : 3,
                    "material" : 0
                }
            ]
        },
        {
            "name" : "Text",
            "primitives" : [
                {
                    "attributes" : {
                        "POSITION" : 4,
                        "NORMAL" : 5,
                        "TEXCOORD_0" : 6
                    },
                    "indices" : 7,
                    "material" : 1
                }
            ]
        }
    ],
    "accessors" : [
        {
            "bufferView" : 0,
            "componentType" : 5126,
            "count" : 939,
            "max" : [
                0.28785139322280884,
                0.2866833209991455,
                0.04290042817592621
            ],
            "min" : [
                -0.2893199920654297,
                -0.2904881238937378,
                -0.022510575130581856
            ],
            "type" : "VEC3"
        },
        {
            "bufferView" : 1,
            "componentType" : 5126,
            "count" : 939,
            "type" : "VEC3"
        },
        {
            "bufferView" : 2,
            "componentType" : 5126,
            "count" : 939,
            "type" : "VEC2"
        },
        {
            "bufferView" : 3,
            "componentType" : 5123,
            "count" : 1752,
            "type" : "SCALAR"
        },
        {
            "bufferView" : 4,
            "componentType" : 5126,
            "count" : 5457,
            "max" : [
                1.5035983324050903,
                0.019999997690320015,
                0.28083890676498413
            ],
            "min" : [
                -1.295806884765625,
                -0.020000001415610313,
                -0.3464454114437103
            ],
            "type" : "VEC3"
        },
        {
            "bufferView" : 5,
            "componentType" : 5126,
            "count" : 5457,
            "type" : "VEC3"
        },
        {
            "bufferView" : 6,
            "componentType" : 5126,
            "count" : 5457,
            "type" : "VEC2"
        },
        {
            "bufferView" : 7,
            "componentType" : 5123,
            "count" : 10380,
            "type" : "SCALAR"
        },
        {
            "bufferView" : 8,
            "componentType" : 5126,
            "count" : 90,
            "max" : [
                3
            ],
            "min" : [
                0.03333333333333333
            ],
            "type" : "SCALAR"
        },
        {
            "bufferView" : 9,
            "componentType" : 5126,
            "count" : 90,
            "type" : "VEC4"
        },
        {
            "bufferView" : 10,
            "componentType" : 5126,
            "count" : 90,
            "type" : "VEC3"
        },
        {
            "bufferView" : 11,
            "componentType" : 5126,
            "count" : 90,
            "type" : "VEC4"
        },
        {
            "bufferView" : 12,
            "componentType" : 5126,
            "count" : 90,
            "type" : "VEC3"
        }
    ],
    "bufferViews" : [
        {
            "buffer" : 0,
            "byteLength" : 11268,
            "byteOffset" : 0
        },
        {
            "buffer" : 0,
            "byteLength" : 11268,
            "byteOffset" : 11268
        },
        {
            "buffer" : 0,
            "byteLength" : 7512,
            "byteOffset" : 22536
        },
        {
            "buffer" : 0,
            "byteLength" : 3504,
            "byteOffset" : 30048
        },
        {
            "buffer" : 0,
            "byteLength" : 65484,
            "byteOffset" : 33552
        },
        {
            "buffer" : 0,
            "byteLength" : 65484,
            "byteOffset" : 99036
        },
        {
            "buffer" : 0,
            "byteLength" : 43656,
            "byteOffset" : 164520
        },
        {
            "buffer" : 0,
            "byteLength" : 20760,
            "byteOffset" : 208176
        },
        {
            "buffer" : 0,
            "byteLength" : 360,
            "byteOffset" : 228936
        },
        {
            "buffer" : 0,
            "byteLength" : 1440,
            "byteOffset" : 229296
        },
        {
            "buffer" : 0,
            "byteLength" : 1080,
            "byteOffset" : 230736
        },
        {
            "buffer" : 0,
            "byteLength" : 1440,
            "byteOffset" : 231816
        },
        {
            "buffer" : 0,
            "byteLength" : 1080,
            "byteOffset" : 233256
        }
    ],
    "buffers" : [
        {
            "byteLength" : 234336,
            "uri" : "data:application/octet-stream;base64,"
        }
    ]
}
