{
    "asset" : {
        "generator" : "Khronos glTF Blender I/O v3.2.40",
        "version" : "2.0"
    },
    "scene" : 0,
    "scenes" : [
        {
            "name" : "Scene",
            "nodes" : [
                0,
                1
            ]
        }
    ],
    "nodes" : [
        {
            "mesh" : 0,
            "name" : "flo_logo",
            "rotation" : [
                0.7071068286895752,
                0,
                0,
                0.7071068286895752
            ],
            "scale" : [
                0.2888082265853882,
                0.2888082265853882,
                0.2888082265853882
            ],
            "translation" : [
                0.03283107280731201,
                1.861405849456787,
                0
            ]
        },
        {
            "mesh" : 1,
            "name" : "flo.001",
            "rotation" : [
                0.7071068286895752,
                0,
                0,
                0.7071068286895752
            ],
            "scale" : [
                0.2138954997062683,
                0.2138954997062683,
                0.2138954997062683
            ],
            "translation" : [
                0.07696487754583359,
                1.0335922241210938,
                0
            ]
        }
    ],
    "animations" : [
        {
            "channels" : [
                {
                    "sampler" : 0,
                    "target" : {
                        "node" : 0,
                        "path" : "rotation"
                    }
                }
            ],
            "name" : "floAction",
            "samplers" : [
                {
                    "input" : 7,
                    "interpolation" : "LINEAR",
                    "output" : 8
                }
            ]
        },
        {
            "channels" : [
                {
                    "sampler" : 0,
                    "target" : {
                        "node" : 1,
                        "path" : "translation"
                    }
                },
                {
                    "sampler" : 1,
                    "target" : {
                        "node" : 1,
                        "path" : "rotation"
                    }
                },
                {
                    "sampler" : 2,
                    "target" : {
                        "node" : 1,
                        "path" : "scale"
                    }
                }
            ],
            "name" : "flo.001",
            "samplers" : [
                {
                    "input" : 7,
                    "interpolation" : "LINEAR",
                    "output" : 9
                },
                {
                    "input" : 7,
                    "interpolation" : "LINEAR",
                    "output" : 10
                },
                {
                    "input" : 7,
                    "interpolation" : "LINEAR",
                    "output" : 11
                }
            ]
        }
    ],
    "materials" : [
        {
            "doubleSided" : true,
            "name" : "Material.009",
            "pbrMetallicRoughness" : {
                "baseColorFactor" : [
                    0,
                    0.0018003000877797604,
                    0.026239514350891113,
                    1
                ],
                "metallicFactor" : 0.33944955468177795,
                "roughnessFactor" : 0.3073394298553467
            }
        },
        {
            "doubleSided" : true,
            "name" : "Material.005",
            "pbrMetallicRoughness" : {
                "baseColorFactor" : [
                    0.008886558003723621,
                    0.008957224898040295,
                    0.2317694127559662,
                    1
                ],
                "metallicFactor" : 0
            }
        }
    ],
    "meshes" : [
        {
            "name" : "BezierCurve.001",
            "primitives" : [
                {
                    "attributes" : {
                        "POSITION" : 0,
                        "NORMAL" : 1
                    },
                    "indices" : 2,
                    "material" : 0
                }
            ]
        },
        {
            "name" : "Text.001",
            "primitives" : [
                {
                    "attributes" : {
                        "POSITION" : 3,
                        "NORMAL" : 4,
                        "TEXCOORD_0" : 5
                    },
                    "indices" : 6,
                    "material" : 1
                }
            ]
        }
    ],
    "accessors" : [
        {
            "bufferView" : 0,
            "componentType" : 5126,
            "count" : 14964,
            "max" : [
                1.8702642917633057,
                0.04999732971191406,
                1.962091088294983
            ],
            "min" : [
                -1.5238909721374512,
                -0.03001880645751953,
                -1.817039966583252
            ],
            "type" : "VEC3"
        },
        {
            "bufferView" : 1,
            "componentType" : 5126,
            "count" : 14964,
            "type" : "VEC3"
        },
        {
            "bufferView" : 2,
            "componentType" : 5123,
            "count" : 67644,
            "type" : "SCALAR"
        },
        {
            "bufferView" : 3,
            "componentType" : 5126,
            "count" : 1804,
            "max" : [
                0.5771620273590088,
                0.019999999552965164,
                0.2788330614566803
            ],
            "min" : [
                -0.5137856602668762,
                -0.019999999552965164,
                -0.32422688603401184
            ],
            "type" : "VEC3"
        },
        {
            "bufferView" : 4,
            "componentType" : 5126,
            "count" : 1804,
            "type" : "VEC3"
        },
        {
            "bufferView" : 5,
            "componentType" : 5126,
            "count" : 1804,
            "type" : "VEC2"
        },
        {
            "bufferView" : 6,
            "componentType" : 5123,
            "count" : 3144,
            "type" : "SCALAR"
        },
        {
            "bufferView" : 7,
            "componentType" : 5126,
            "count" : 90,
            "max" : [
                3
            ],
            "min" : [
                0.03333333333333333
            ],
            "type" : "SCALAR"
        },
        {
            "bufferView" : 8,
            "componentType" : 5126,
            "count" : 90,
            "type" : "VEC4"
        },
        {
            "bufferView" : 9,
            "componentType" : 5126,
            "count" : 90,
            "type" : "VEC3"
        },
        {
            "bufferView" : 10,
            "componentType" : 5126,
            "count" : 90,
            "type" : "VEC4"
        },
        {
            "bufferView" : 11,
            "componentType" : 5126,
            "count" : 90,
            "type" : "VEC3"
        }
    ],
    "bufferViews" : [
        {
            "buffer" : 0,
            "byteLength" : 179568,
            "byteOffset" : 0
        },
        {
            "buffer" : 0,
            "byteLength" : 179568,
            "byteOffset" : 179568
        },
        {
            "buffer" : 0,
            "byteLength" : 135288,
            "byteOffset" : 359136
        },
        {
            "buffer" : 0,
            "byteLength" : 21648,
            "byteOffset" : 494424
        },
        {
            "buffer" : 0,
            "byteLength" : 21648,
            "byteOffset" : 516072
        },
        {
            "buffer" : 0,
            "byteLength" : 14432,
            "byteOffset" : 537720
        },
        {
            "buffer" : 0,
            "byteLength" : 6288,
            "byteOffset" : 552152
        },
        {
            "buffer" : 0,
            "byteLength" : 360,
            "byteOffset" : 558440
        },
        {
            "buffer" : 0,
            "byteLength" : 1440,
            "byteOffset" : 558800
        },
        {
            "buffer" : 0,
            "byteLength" : 1080,
            "byteOffset" : 560240
        },
        {
            "buffer" : 0,
            "byteLength" : 1440,
            "byteOffset" : 561320
        },
        {
            "buffer" : 0,
            "byteLength" : 1080,
            "byteOffset" : 562760
        }
    ],
    "buffers" : [
        {
            "byteLength" : 563840,
            "uri" : "data:application/octet-stream;base64,"
        }
    ]
}
