{
    "asset" : {
        "generator" : "Khronos glTF Blender I/O v3.2.40",
        "version" : "2.0"
    },
    "scene" : 0,
    "scenes" : [
        {
            "name" : "Scene",
            "nodes" : [
                0,
                1
            ]
        }
    ],
    "nodes" : [
        {
            "mesh" : 0,
            "name" : "Ethereum_logo",
            "rotation" : [
                0.70710688829422,
                0,
                0,
                0.7071066498756409
            ],
            "scale" : [
                0.0010496440809220076,
                0.0010496440809220076,
                0.0010496440809220076
            ],
            "translation" : [
                1.2139947414398193,
                1.861405849456787,
                0
            ]
        },
        {
            "mesh" : 1,
            "name" : "ethereum",
            "rotation" : [
                0.7071068286895752,
                0,
                0,
                0.7071068286895752
            ],
            "scale" : [
                0.2138954997062683,
                0.2138954997062683,
                0.2138954997062683
            ],
            "translation" : [
                1.2162216901779175,
                1.027363896369934,
                0
            ]
        }
    ],
    "animations" : [
        {
            "channels" : [
                {
                    "sampler" : 0,
                    "target" : {
                        "node" : 0,
                        "path" : "rotation"
                    }
                }
            ],
            "name" : "Ethereum_logo_@akimovcgAction",
            "samplers" : [
                {
                    "input" : 8,
                    "interpolation" : "LINEAR",
                    "output" : 9
                }
            ]
        },
        {
            "channels" : [
                {
                    "sampler" : 0,
                    "target" : {
                        "node" : 1,
                        "path" : "translation"
                    }
                },
                {
                    "sampler" : 1,
                    "target" : {
                        "node" : 1,
                        "path" : "rotation"
                    }
                },
                {
                    "sampler" : 2,
                    "target" : {
                        "node" : 1,
                        "path" : "scale"
                    }
                }
            ],
            "name" : "ethereum",
            "samplers" : [
                {
                    "input" : 8,
                    "interpolation" : "LINEAR",
                    "output" : 10
                },
                {
                    "input" : 8,
                    "interpolation" : "LINEAR",
                    "output" : 11
                },
                {
                    "input" : 8,
                    "interpolation" : "LINEAR",
                    "output" : 12
                }
            ]
        }
    ],
    "materials" : [
        {
            "doubleSided" : true,
            "name" : "default",
            "pbrMetallicRoughness" : {
                "baseColorFactor" : [
                    0.04518616944551468,
                    0.045186180621385574,
                    0.046665094792842865,
                    1
                ],
                "roughnessFactor" : 0.2293577790260315
            }
        },
        {
            "doubleSided" : true,
            "name" : "Material.005",
            "pbrMetallicRoughness" : {
                "baseColorFactor" : [
                    0.008886558003723621,
                    0.008957224898040295,
                    0.2317694127559662,
                    1
                ],
                "metallicFactor" : 0
            }
        }
    ],
    "meshes" : [
        {
            "name" : "Ethereum_logo_@akimovcg",
            "primitives" : [
                {
                    "attributes" : {
                        "POSITION" : 0,
                        "NORMAL" : 1,
                        "TEXCOORD_0" : 2
                    },
                    "indices" : 3,
                    "material" : 0
                }
            ]
        },
        {
            "name" : "Text.002",
            "primitives" : [
                {
                    "attributes" : {
                        "POSITION" : 4,
                        "NORMAL" : 5,
                        "TEXCOORD_0" : 6
                    },
                    "indices" : 7,
                    "material" : 1
                }
            ]
        }
    ],
    "accessors" : [
        {
            "bufferView" : 0,
            "componentType" : 5126,
            "count" : 1512,
            "max" : [
                244.1079864501953,
                155.44158935546875,
                398.92047119140625
            ],
            "min" : [
                -244.1079864501953,
                -155.44158935546875,
                -393.6180419921875
            ],
            "type" : "VEC3"
        },
        {
            "bufferView" : 1,
            "componentType" : 5126,
            "count" : 1512,
            "type" : "VEC3"
        },
        {
            "bufferView" : 2,
            "componentType" : 5126,
            "count" : 1512,
            "type" : "VEC2"
        },
        {
            "bufferView" : 3,
            "componentType" : 5123,
            "count" : 2244,
            "type" : "SCALAR"
        },
        {
            "bufferView" : 4,
            "componentType" : 5126,
            "count" : 6392,
            "max" : [
                1.8373767137527466,
                0.019999999552965164,
                0.25566455721855164
            ],
            "min" : [
                -1.634361743927002,
                -0.019999999552965164,
                -0.3388955593109131
            ],
            "type" : "VEC3"
        },
        {
            "bufferView" : 5,
            "componentType" : 5126,
            "count" : 6392,
            "type" : "VEC3"
        },
        {
            "bufferView" : 6,
            "componentType" : 5126,
            "count" : 6392,
            "type" : "VEC2"
        },
        {
            "bufferView" : 7,
            "componentType" : 5123,
            "count" : 11736,
            "type" : "SCALAR"
        },
        {
            "bufferView" : 8,
            "componentType" : 5126,
            "count" : 90,
            "max" : [
                3
            ],
            "min" : [
                0.03333333333333333
            ],
            "type" : "SCALAR"
        },
        {
            "bufferView" : 9,
            "componentType" : 5126,
            "count" : 90,
            "type" : "VEC4"
        },
        {
            "bufferView" : 10,
            "componentType" : 5126,
            "count" : 90,
            "type" : "VEC3"
        },
        {
            "bufferView" : 11,
            "componentType" : 5126,
            "count" : 90,
            "type" : "VEC4"
        },
        {
            "bufferView" : 12,
            "componentType" : 5126,
            "count" : 90,
            "type" : "VEC3"
        }
    ],
    "bufferViews" : [
        {
            "buffer" : 0,
            "byteLength" : 18144,
            "byteOffset" : 0
        },
        {
            "buffer" : 0,
            "byteLength" : 18144,
            "byteOffset" : 18144
        },
        {
            "buffer" : 0,
            "byteLength" : 12096,
            "byteOffset" : 36288
        },
        {
            "buffer" : 0,
            "byteLength" : 4488,
            "byteOffset" : 48384
        },
        {
            "buffer" : 0,
            "byteLength" : 76704,
            "byteOffset" : 52872
        },
        {
            "buffer" : 0,
            "byteLength" : 76704,
            "byteOffset" : 129576
        },
        {
            "buffer" : 0,
            "byteLength" : 51136,
            "byteOffset" : 206280
        },
        {
            "buffer" : 0,
            "byteLength" : 23472,
            "byteOffset" : 257416
        },
        {
            "buffer" : 0,
            "byteLength" : 360,
            "byteOffset" : 280888
        },
        {
            "buffer" : 0,
            "byteLength" : 1440,
            "byteOffset" : 281248
        },
        {
            "buffer" : 0,
            "byteLength" : 1080,
            "byteOffset" : 282688
        },
        {
            "buffer" : 0,
            "byteLength" : 1440,
            "byteOffset" : 283768
        },
        {
            "buffer" : 0,
            "byteLength" : 1080,
            "byteOffset" : 285208
        }
    ],
    "buffers" : [
        {
            "byteLength" : 286288,
            "uri" : "data:application/octet-stream;base64,"
        }
    ]
}
